<svg xmlns="http://www.w3.org/2000/svg" width="162.188" height="34.938" viewBox="0 0 162.188 34.938">
  <metadata><?xpacket begin="﻿" id="W5M0MpCehiHzreSzNTczkc9d"?>
<x:xmpmeta xmlns:x="adobe:ns:meta/" x:xmptk="Adobe XMP Core 5.6-c142 79.160924, 2017/07/13-01:06:39        ">
   <rdf:RDF xmlns:rdf="http://www.w3.org/1999/02/22-rdf-syntax-ns#">
      <rdf:Description rdf:about=""/>
   </rdf:RDF>
</x:xmpmeta>
                                                                                                    
                                                                                                    
                                                                                                    
                                                                                                    
                                                                                                    
                                                                                                    
                                                                                                    
                                                                                                    
                                                                                                    
                                                                                                    
                                                                                                    
                                                                                                    
                                                                                                    
                                                                                                    
                                                                                                    
                                                                                                    
                                                                                                    
                                                                                                    
                                                                                                    
                                                                                                    
                           
<?xpacket end="w"?></metadata>
<defs>
    <style>
      .cls-1 {
        fill-rule: evenodd;
      }
    </style>
  </defs>
  <path id="logo" class="cls-1" d="M200.5,23.64v33.6h13.44a15.561,15.561,0,0,0,11.64-4.824,16.523,16.523,0,0,0,4.68-11.976,16.524,16.524,0,0,0-4.68-11.976,15.561,15.561,0,0,0-11.64-4.824H200.5Zm7.68,26.208V31.032h5.76A8.561,8.561,0,0,1,220.4,33.6a9.453,9.453,0,0,1,2.472,6.84,9.45,9.45,0,0,1-2.472,6.84,8.558,8.558,0,0,1-6.456,2.568h-5.76ZM242.741,43.9h12V36.6h-12V31.032h13.2V23.64h-20.88v33.6h21.12V49.848h-13.44V43.9Zm36.1,13.344,10.944-33.6h-8.4l-7.44,24.72L266.5,23.64h-8.4l10.944,33.6h9.792Zm14.3,0h7.68V23.64h-7.68v33.6Zm38.351-1.416a15.449,15.449,0,0,0,6-5.688l-6.624-3.84a7.456,7.456,0,0,1-3.144,3.024,9.749,9.749,0,0,1-4.632,1.1,9.493,9.493,0,0,1-7.128-2.736A9.945,9.945,0,0,1,313.3,40.44a9.946,9.946,0,0,1,2.664-7.248,9.493,9.493,0,0,1,7.128-2.736,9.787,9.787,0,0,1,4.608,1.08,7.566,7.566,0,0,1,3.168,3.048l6.624-3.84a15.8,15.8,0,0,0-6.048-5.688,17.2,17.2,0,0,0-8.352-2.088A17.061,17.061,0,0,0,305.62,40.44a17.061,17.061,0,0,0,17.472,17.472A17.3,17.3,0,0,0,331.492,55.824ZM349.252,43.9h12V36.6h-12V31.032h13.2V23.64h-20.88v33.6h21.12V49.848h-13.44V43.9Z" transform="translate(-200.5 -22.969)"/>
</svg>
