<svg xmlns="http://www.w3.org/2000/svg" width="162.187" height="34.94" viewBox="0 0 162.187 34.94">
  <metadata><?xpacket begin="﻿" id="W5M0MpCehiHzreSzNTczkc9d"?>
<x:xmpmeta xmlns:x="adobe:ns:meta/" x:xmptk="Adobe XMP Core 5.6-c142 79.160924, 2017/07/13-01:06:39        ">
   <rdf:RDF xmlns:rdf="http://www.w3.org/1999/02/22-rdf-syntax-ns#">
      <rdf:Description rdf:about=""/>
   </rdf:RDF>
</x:xmpmeta>
                                                                                                    
                                                                                                    
                                                                                                    
                                                                                                    
                                                                                                    
                                                                                                    
                                                                                                    
                                                                                                    
                                                                                                    
                                                                                                    
                                                                                                    
                                                                                                    
                                                                                                    
                                                                                                    
                                                                                                    
                                                                                                    
                                                                                                    
                                                                                                    
                                                                                                    
                                                                                                    
                           
<?xpacket end="w"?></metadata>
<defs>
    <style>
      .cls-1 {
        fill: #ffc600;
        fill-rule: evenodd;
      }
    </style>
  </defs>
  <path id="logo" class="cls-1" d="M137.722,5562.91v33.6h13.44a15.552,15.552,0,0,0,11.64-4.83,17.661,17.661,0,0,0,0-23.95,15.543,15.543,0,0,0-11.64-4.82h-13.44Zm7.68,26.2V5570.3h5.76a8.568,8.568,0,0,1,6.456,2.57,10.7,10.7,0,0,1,0,13.68,8.561,8.561,0,0,1-6.456,2.56H145.4Zm34.559-5.95h12v-7.29h-12v-5.57h13.2v-7.39h-20.88v33.6H193.4v-7.4h-13.44v-5.95Zm36.1,13.35L227,5562.91h-8.4l-7.44,24.72-7.44-24.72h-8.4l10.944,33.6h9.792Zm14.3,0h7.68v-33.6h-7.68v33.6Zm38.352-1.42a15.446,15.446,0,0,0,6-5.69l-6.624-3.84a7.5,7.5,0,0,1-3.144,3.03,9.825,9.825,0,0,1-4.632,1.1,9.473,9.473,0,0,1-7.128-2.74,11.184,11.184,0,0,1,0-14.49,9.473,9.473,0,0,1,7.128-2.74,9.792,9.792,0,0,1,4.608,1.08,7.593,7.593,0,0,1,3.168,3.05l6.624-3.84a15.809,15.809,0,0,0-6.048-5.69,17.234,17.234,0,0,0-8.352-2.09,17.477,17.477,0,1,0,0,34.95A17.329,17.329,0,0,0,268.713,5595.09Zm17.759-11.93h12v-7.29h-12v-5.57h13.2v-7.39h-20.88v33.6h21.12v-7.4h-13.44v-5.95Z" transform="translate(-137.719 -5562.25)"/>
</svg>
